SRRun01_grf
version=1
nRows=37
nColumns=19
inDegrees=no
endheader
time	ground_force_r_vx	ground_force_r_vy	ground_force_r_vz	ground_force_r_px	ground_force_r_py	ground_force_r_pz	ground_force_r_mx	ground_force_r_my	ground_force_r_mz	ground_force_l_vx	ground_force_l_vy	ground_force_l_vz	ground_force_l_px	ground_force_l_py	ground_force_l_pz	ground_force_l_mx	ground_force_l_my	ground_force_l_mz
    147.49900000	     34.77680921	   2063.31443234	    188.68225329	      0.80719875	      0.00000000	     -0.97547198	      0.00010642	    -12.96740353	      0.00005753	      0.00000000	      0.00000000	      0.00000000	      0.00000000	      0.00000000	      0.00000000	      0.00000000	      0.00000000	      0.00000000
    147.50000000	     30.92199606	   2069.29884063	    180.91899414	      0.80728877	      0.00000000	     -0.97213478	      0.00010836	     -4.32605896	      0.00005922	      0.00000000	      0.00000000	      0.00000000	      0.00000000	      0.00000000	      0.00000000	      0.00000000	      0.00000000	      0.00000000
    147.50100000	     29.22176104	   2074.78778252	    174.00904216	      0.80744394	      0.00000000	     -0.96896089	      0.00010980	      3.87300363	      0.00006190	      0.00000000	      0.00000000	      0.00000000	      0.00000000	      0.00000000	      0.00000000	      0.00000000	      0.00000000	      0.00000000
    147.50200000	     29.98360595	   2079.69780198	    168.13420077	      0.80765244	      0.00000000	     -0.96596597	      0.00011068	     10.77269254	      0.00006545	      0.00000000	      0.00000000	      0.00000000	      0.00000000	      0.00000000	      0.00000000	      0.00000000	      0.00000000	      0.00000000
    147.50300000	     33.38462669	   2083.99697206	    163.41737013	      0.80790325	      0.00000000	     -0.96315333	      0.00011096	     15.65528507	      0.00006969	      0.00000000	      0.00000000	      0.00000000	      0.00000000	      0.00000000	      0.00000000	      0.00000000	      0.00000000	      0.00000000
    147.50400000	     39.43103229	   2087.71982513	    159.89892775	      0.80818668	      0.00000000	     -0.96051629	      0.00011063	     18.02238135	      0.00007439	      0.00000000	      0.00000000	      0.00000000	      0.00000000	      0.00000000	      0.00000000	      0.00000000	      0.00000000	      0.00000000
    147.50500000	     47.93063074	   2090.97086750	    157.51799086	      0.80849444	      0.00000000	     -0.95804074	      0.00010972	     17.65073422	      0.00007931	      0.00000000	      0.00000000	      0.00000000	      0.00000000	      0.00000000	      0.00000000	      0.00000000	      0.00000000	      0.00000000
    147.50600000	     58.48277371	   2093.91556313	    156.10230994	      0.80881930	      0.00000000	     -0.95570724	      0.00010827	     14.61717639	      0.00008419	      0.00000000	      0.00000000	      0.00000000	      0.00000000	      0.00000000	      0.00000000	      0.00000000	      0.00000000	      0.00000000
    147.50700000	     70.48855681	   2096.75963667	    155.36989381	      0.80915441	      0.00000000	     -0.95349217	      0.00010638	      9.28951243	      0.00008879	      0.00000000	      0.00000000	      0.00000000	      0.00000000	      0.00000000	      0.00000000	      0.00000000	      0.00000000	      0.00000000
    147.50800000	     83.18205455	   2099.71955404	    154.94416507	      0.80949259	      0.00000000	     -0.95136775	      0.00010416	      2.28432411	      0.00009288	      0.00000000	      0.00000000	      0.00000000	      0.00000000	      0.00000000	      0.00000000	      0.00000000	      0.00000000	      0.00000000
    147.50900000	     95.68111192	   2102.98878656	    154.38255473	      0.80982565	      0.00000000	     -0.94930134	      0.00010175	     -5.60343055	      0.00009630	      0.00000000	      0.00000000	      0.00000000	      0.00000000	      0.00000000	      0.00000000	      0.00000000	      0.00000000	      0.00000000
    147.51000000	    107.05388669	   2106.70544568	    153.21631493	      0.81014399	      0.00000000	     -0.94725472	      0.00009929	    -13.49085407	      0.00009891	      0.00000000	      0.00000000	      0.00000000	      0.00000000	      0.00000000	      0.00000000	      0.00000000	      0.00000000	      0.00000000
    147.51100000	    116.39526860	   2110.92672564	    150.99744381	      0.81043659	      0.00000000	     -0.94518424	      0.00009690	    -20.50709176	      0.00010065	      0.00000000	      0.00000000	      0.00000000	      0.00000000	      0.00000000	      0.00000000	      0.00000000	      0.00000000	      0.00000000
    147.51200000	    122.90585840	   2115.61432775	    147.34738369	      0.81069135	      0.00000000	     -0.94304264	      0.00009473	    -25.89125466	      0.00010151	      0.00000000	      0.00000000	      0.00000000	      0.00000000	      0.00000000	      0.00000000	      0.00000000	      0.00000000	      0.00000000
    147.51300000	    125.96556012	   2120.63301406	    142.00174583	      0.81089589	      0.00000000	     -0.94078258	      0.00009288	    -29.07693295	      0.00010154	      0.00000000	      0.00000000	      0.00000000	      0.00000000	      0.00000000	      0.00000000	      0.00000000	      0.00000000	      0.00000000
    147.51400000	    125.19403627	   2125.76217151	    134.84568846	      0.81103865	      0.00000000	     -0.93836171	      0.00009142	    -29.75359214	      0.00010086	      0.00000000	      0.00000000	      0.00000000	      0.00000000	      0.00000000	      0.00000000	      0.00000000	      0.00000000	      0.00000000
    147.51500000	    120.49127393	   2130.71831520	    125.93556111	      0.81111018	      0.00000000	     -0.93574831	      0.00009041	    -27.89795677	      0.00009958	      0.00000000	      0.00000000	      0.00000000	      0.00000000	      0.00000000	      0.00000000	      0.00000000	      0.00000000	      0.00000000
    147.51600000	    112.05333319	   2135.18518264	    115.50384187	      0.81110434	      0.00000000	     -0.93292674	      0.00008987	    -23.77208685	      0.00009785	      0.00000000	      0.00000000	      0.00000000	      0.00000000	      0.00000000	      0.00000000	      0.00000000	      0.00000000	      0.00000000
    147.51700000	    100.36094515	   2138.84745845	    103.94609221	      0.81101925	      0.00000000	     -0.92990154	      0.00008979	    -17.88879525	      0.00009580	      0.00000000	      0.00000000	      0.00000000	      0.00000000	      0.00000000	      0.00000000	      0.00000000	      0.00000000	      0.00000000
    147.51800000	     86.14168463	   2141.42401716	     91.79050268	      0.81085798	      0.00000000	     -0.92669901	      0.00009015	    -10.94887776	      0.00009356	      0.00000000	      0.00000000	      0.00000000	      0.00000000	      0.00000000	      0.00000000	      0.00000000	      0.00000000	      0.00000000
    147.51900000	     70.30944455	   2142.69682098	     79.65241920	      0.81062878	      0.00000000	     -0.92336586	      0.00009088	     -3.75786722	      0.00009122	      0.00000000	      0.00000000	      0.00000000	      0.00000000	      0.00000000	      0.00000000	      0.00000000	      0.00000000	      0.00000000
    147.52000000	     53.88744262	   2142.53231524	     68.17782473	      0.81034488	      0.00000000	     -0.91996491	      0.00009190	      2.86769552	      0.00008884	      0.00000000	      0.00000000	      0.00000000	      0.00000000	      0.00000000	      0.00000000	      0.00000000	      0.00000000	      0.00000000
    147.52100000	     37.92277817	   2140.89323842	     57.98098789	      0.81002384	      0.00000000	     -0.91656837	      0.00009308	      8.19340065	      0.00008647	      0.00000000	      0.00000000	      0.00000000	      0.00000000	      0.00000000	      0.00000000	      0.00000000	      0.00000000	      0.00000000
    147.52200000	     23.40145428	   2137.83998533	     49.58229990	      0.80968647	      0.00000000	     -0.91324986	      0.00009430	     11.64870686	      0.00008415	      0.00000000	      0.00000000	      0.00000000	      0.00000000	      0.00000000	      0.00000000	      0.00000000	      0.00000000	      0.00000000
    147.52300000	     11.17255645	   2133.52188201	     43.35257572	      0.80935551	      0.00000000	     -0.91007641	      0.00009540	     12.88808730	      0.00008189	      0.00000000	      0.00000000	      0.00000000	      0.00000000	      0.00000000	      0.00000000	      0.00000000	      0.00000000	      0.00000000
    147.52400000	      1.88883969	   2128.15987404	     39.46969058	      0.80905427	      0.00000000	     -0.90710140	      0.00009621	     11.82512153	      0.00007970	      0.00000000	      0.00000000	      0.00000000	      0.00000000	      0.00000000	      0.00000000	      0.00000000	      0.00000000	      0.00000000
    147.52500000	     -4.03143969	   2122.02300194	     37.89243548	      0.80880523	      0.00000000	     -0.90435934	      0.00009658	      8.63642491	      0.00007759	      0.00000000	      0.00000000	      0.00000000	      0.00000000	      0.00000000	      0.00000000	      0.00000000	      0.00000000	      0.00000000
    147.52600000	     -6.41948995	   2115.40144040	     38.35509924	      0.80862873	      0.00000000	     -0.90186304	      0.00009635	      3.73583203	      0.00007558	      0.00000000	      0.00000000	      0.00000000	      0.00000000	      0.00000000	      0.00000000	      0.00000000	      0.00000000	      0.00000000
    147.52700000	     -5.34854941	   2108.57890279	     40.38462321	      0.80854165	      0.00000000	     -0.89960315	      0.00009544	     -2.27738394	      0.00007371	      0.00000000	      0.00000000	      0.00000000	      0.00000000	      0.00000000	      0.00000000	      0.00000000	      0.00000000	      0.00000000
    147.52800000	     -1.10709365	   2101.80710731	     43.34015562	      0.80855611	      0.00000000	     -0.89755001	      0.00009378	     -8.68959627	      0.00007203	      0.00000000	      0.00000000	      0.00000000	      0.00000000	      0.00000000	      0.00000000	      0.00000000	      0.00000000	      0.00000000
    147.52900000	      5.84266274	   2095.28478763	     46.47241012	      0.80867833	      0.00000000	     -0.89565713	      0.00009141	    -14.75454174	      0.00007060	      0.00000000	      0.00000000	      0.00000000	      0.00000000	      0.00000000	      0.00000000	      0.00000000	      0.00000000	      0.00000000
    147.53000000	     14.91529402	   2089.14321018	     48.99763715	      0.80890785	      0.00000000	     -0.89386592	      0.00008841	    -19.77613725	      0.00006951	      0.00000000	      0.00000000	      0.00000000	      0.00000000	      0.00000000	      0.00000000	      0.00000000	      0.00000000	      0.00000000
    147.53100000	     25.45562475	   2083.43929510	     50.17876389	      0.80923722	      0.00000000	     -0.89211098	      0.00008496	    -23.18320132	      0.00006881	      0.00000000	      0.00000000	      0.00000000	      0.00000000	      0.00000000	      0.00000000	      0.00000000	      0.00000000	      0.00000000
    147.53200000	     36.78932270	   2078.15645962	     49.40487240	      0.80965224	      0.00000000	     -0.89032564	      0.00008125	    -24.58823974	      0.00006854	      0.00000000	      0.00000000	      0.00000000	      0.00000000	      0.00000000	      0.00000000	      0.00000000	      0.00000000	      0.00000000
    147.53300000	     48.26590479	   2073.21244582	     46.25993209	      0.81013277	      0.00000000	     -0.88844735	      0.00007755	    -23.82456154	      0.00006871	      0.00000000	      0.00000000	      0.00000000	      0.00000000	      0.00000000	      0.00000000	      0.00000000	      0.00000000	      0.00000000
    147.53400000	     59.29118392	   2068.47275524	     40.57254733	      0.81065390	      0.00000000	     -0.88642293	      0.00007413	    -20.95858514	      0.00006929	      0.00000000	      0.00000000	      0.00000000	      0.00000000	      0.00000000	      0.00000000	      0.00000000	      0.00000000	      0.00000000
    147.53500000	     69.34820635	   2063.76792530	     32.44026619	      0.81118757	      0.00000000	     -0.88421304	      0.00007128	    -16.27699348	      0.00007021	      0.00000000	      0.00000000	      0.00000000	      0.00000000	      0.00000000	      0.00000000	      0.00000000	      0.00000000	      0.00000000
